<svg width="71" height="61" viewBox="0 0 71 61" fill="none" xmlns="http://www.w3.org/2000/svg">
<path d="M35.4022 0.905909C31.9274 0.905909 29.1106 3.3394 29.1106 6.34134H41.6938C41.6938 3.3394 38.877 0.905909 35.4022 0.905909Z" fill="#585661"/>
<path d="M46.3564 28.0617C46.3564 28.0617 45.7549 41.6502 35.4022 41.6502C24.633 41.6502 24.448 28.0617 24.448 28.0617C24.448 28.0617 26.7841 25.5716 27.7413 23.5535C28.5713 21.8033 28.3779 18.6843 29.2734 16.7973C30.2553 14.7282 33.1317 14.4731 35.4022 14.4731C37.7427 14.4731 39.9116 15.3836 41.6915 16.9347C42.9733 18.0515 41.7478 21.6241 42.5448 23.3045C43.5019 25.3225 46.3564 28.0617 46.3564 28.0617Z" fill="#FFD750"/>
<path d="M44.0833 25.5888C43.4727 24.8406 42.8872 24.0267 42.5448 23.3045C42.2172 22.6138 42.2313 21.6036 42.2725 20.5753C40.4527 20.8739 38.1977 21.0776 35.4019 21.0776C32.5581 21.0776 30.2734 20.8671 28.4375 20.5601C28.2847 21.678 28.1189 22.7572 27.7413 23.5535C27.4355 24.198 26.9894 24.8905 26.5234 25.5348C28.531 26.0943 31.3761 26.565 35.4019 26.565C39.2971 26.5649 42.0877 26.1242 44.0833 25.5888Z" fill="#6B676E"/>
<path d="M46.1234 29.4419C44.2259 30.2716 40.9685 31.2426 35.4018 31.2426C29.8357 31.2426 26.5785 30.2718 24.6808 29.4423C24.9271 31.7726 25.3113 33.535 26.3929 35.3303C28.2697 35.9701 31.3642 36.4627 35.4016 36.4627C39.4399 36.4627 42.6045 35.9702 44.4814 35.3303C44.6007 35.1323 44.7092 34.9345 44.8108 34.7365C45.3089 33.54 45.6486 32.3492 45.8789 31.3111C45.9766 30.7246 46.0531 30.107 46.1234 29.4419Z" fill="#6B676E"/>
<path d="M43.042 13.1143C43.042 16.3664 41.4969 19.0027 35.4022 19.0027C29.3075 19.0027 27.7624 16.3664 27.7624 13.1143C27.7624 9.86214 29.3075 7.22596 35.4022 7.22596C41.4969 7.22596 43.042 9.86214 43.042 13.1143Z" fill="#585661"/>
<path d="M43.2456 10.8496C43.2456 13.3511 41.6592 15.3791 35.4021 15.3791C29.145 15.3791 27.5586 13.3511 27.5586 10.8496C27.5586 8.34792 29.145 6.32005 35.4021 6.32005C41.6592 6.32005 43.2456 8.34792 43.2456 10.8496Z" fill="#6B676E"/>
<path d="M58.7711 21.7203C44.5026 8.35834 41.6517 7.50905 41.6517 7.50905C43.7489 10.0003 42.9435 12.0054 42.5926 13.5673C40.795 21.5693 44.1655 26.4763 46.1879 28.0617C50.5153 31.4539 63.2651 35.6487 63.2651 32.5913C63.2651 27.8352 61.39 24.173 58.7711 21.7203Z" fill="#FFEBD2"/>
<path d="M11.9912 21.7203C26.2597 8.35834 29.1106 7.50905 29.1106 7.50905C27.0133 10.0003 27.8188 12.0054 28.1696 13.5673C29.9673 21.5693 26.5967 26.4763 24.5744 28.0617C20.247 31.4539 7.49715 35.6487 7.49715 32.5913C7.49715 27.8352 9.37217 24.173 11.9912 21.7203Z" fill="#FFEBD2"/>
<path d="M60.4849 22.3179C60.4115 22.1292 60.2764 21.9673 60.0967 21.8633C59.8685 21.6043 59.6322 21.3498 59.3854 21.1011C55.6666 17.353 44.64 8.46965 42.5562 6.79792C42.4541 5.12448 41.7865 3.60324 40.7435 2.42602C41.8367 2.2616 43.1829 2.0837 44.1419 1.96061L43.4876 5.25776C43.4162 5.61786 43.5674 5.98566 43.8704 6.18926L46.5668 8.00107C46.7201 8.10401 46.8932 8.15338 47.0645 8.15338C47.3549 8.15338 47.64 8.01172 47.8132 7.74991C48.0886 7.33365 47.977 6.77108 47.5639 6.49365L45.3684 5.01838L46.1491 1.08381C46.2056 0.798785 46.1231 0.5038 45.9272 0.290573C45.7313 0.0773453 45.4454 -0.0280799 45.1596 0.00679741C44.9599 0.0311436 40.3374 0.597448 38.8634 0.909872C37.8311 0.330886 36.6439 3.39343e-06 35.3811 3.39343e-06C34.1183 3.39343e-06 32.9311 0.330885 31.8986 0.909645C30.4246 0.597221 25.8021 0.0309173 25.6023 0.00657105C25.3164 -0.0283063 25.0306 0.0770057 24.8347 0.290346C24.6388 0.503574 24.5562 0.798559 24.6129 1.08358L25.3936 5.01815L23.198 6.49342C22.785 6.77085 22.6733 7.33342 22.9487 7.74968C23.122 8.0116 23.4069 8.15315 23.6974 8.15315C23.8688 8.15315 24.0419 8.10378 24.1951 8.00085L26.8915 6.18903C27.1946 5.98543 27.3458 5.61764 27.2743 5.25754L26.62 1.96038C27.579 2.08347 28.9252 2.26137 30.0185 2.42579C28.9754 3.60302 28.3078 5.12426 28.2057 6.79769C26.1219 8.46943 15.0952 17.3527 11.3765 21.1009C11.1298 21.3496 10.8934 21.604 10.6652 21.8631C10.4856 21.9671 10.3504 22.129 10.277 22.3177C7.87836 25.2409 6.61936 28.7686 6.61936 32.6126C6.61936 33.2036 6.89855 34.5781 9.48486 34.5782H9.48542C12.8958 34.5782 19.7707 32.1912 23.7173 29.7769C23.8816 33.0205 25.0566 36.0832 27.0691 38.4737C29.2973 41.1201 32.2492 42.5776 35.3811 42.5776C38.513 42.5776 41.4649 41.1201 43.693 38.4737C45.7055 36.0833 46.8805 33.0205 47.0447 29.7769C50.9914 32.1911 57.8667 34.5782 61.2772 34.5782C63.8636 34.5782 64.1428 33.2037 64.1428 32.6126C64.1428 28.7686 62.8838 25.2409 60.4849 22.3179ZM43.9164 10.2193C47.3414 13.0013 53.0986 17.7355 56.4999 20.8466C54.352 20.2764 51.5288 19.5606 49.0787 19.0498C46.9927 16.7582 44.5434 14.2842 43.5638 13.3038C43.7689 12.4637 44.023 11.4051 43.9164 10.2193ZM35.3811 1.81181C37.9291 1.81181 40.0686 3.60268 40.6292 6.00083C38.5251 5.44381 35.5448 5.43544 35.3811 5.43544C35.2174 5.43544 32.237 5.44381 30.133 6.00072C30.6936 3.60256 32.8331 1.81181 35.3811 1.81181ZM29.4707 8.22642C29.5312 8.19765 29.5902 8.16448 29.645 8.12099C30.1666 7.70767 32.6505 7.24725 35.3811 7.24725C38.1115 7.24725 40.5956 7.70779 41.1172 8.1211C41.1721 8.16447 41.2311 8.19777 41.2916 8.22653C42.5274 9.96485 42.1487 11.5186 41.811 12.9008C41.7697 13.07 41.7299 13.2328 41.695 13.3886C41.1823 15.6709 41.0735 17.7266 41.233 19.546C40.3244 19.7244 38.583 19.9299 35.3811 19.9299C32.1792 19.9299 30.4378 19.7244 29.5293 19.5459C29.6887 17.7265 29.58 15.6708 29.0673 13.3885C29.0323 13.2327 28.9926 13.07 28.9513 12.9008C28.6135 11.5187 28.2348 9.96474 29.4707 8.22642ZM29.2746 21.3405C30.6694 21.6035 32.753 21.7417 35.3811 21.7417C38.0092 21.7417 40.0926 21.6035 41.4876 21.3405C41.705 22.436 42.0196 23.426 42.393 24.3079C41.6245 24.6304 39.6348 25.3654 35.3809 25.3654C31.1278 25.3654 29.1381 24.6307 28.3693 24.3082C28.7425 23.4261 29.0572 22.436 29.2746 21.3405ZM26.8458 10.2193C26.7392 11.4051 26.9932 12.4637 27.1985 13.3038C26.2189 14.2842 23.7695 16.7581 21.6835 19.0497C19.2335 19.5605 16.4101 20.2763 14.2623 20.8465C17.6635 17.7355 23.4208 13.0013 26.8458 10.2193ZM9.48497 32.7664C8.76784 32.7664 8.4937 32.6394 8.41697 32.5924C8.42124 29.1146 9.52564 26.0363 11.7021 23.4221C12.7868 23.1171 16.2723 22.1506 19.6771 21.352C19.0689 22.0954 18.6085 22.7255 18.3987 23.1484C17.8728 24.2085 16.6732 28.2404 16.522 31.1321C13.8398 32.0988 11.1629 32.7665 9.48497 32.7664ZM24.0436 27.3681C22.7469 28.3846 20.6495 29.4776 18.3848 30.4125C18.6705 27.87 19.6355 24.7066 20.0065 23.9588C20.6163 22.7296 24.5307 18.5661 27.6174 15.442C28.5296 21.8734 25.8866 25.9234 24.0436 27.3681ZM35.3811 40.7657C32.2617 40.7657 29.4244 38.9382 27.5973 36.1521C29.2319 36.7285 31.7236 37.2851 35.3806 37.2851C39.0385 37.2851 41.5304 36.7282 43.1651 36.1516C41.338 38.938 38.5007 40.7657 35.3811 40.7657ZM44.4561 33.5774C43.5057 34.1285 40.9487 35.4733 35.3806 35.4733C29.8146 35.4733 27.2576 34.1296 26.3062 33.5781C25.9569 32.6271 25.7114 31.6154 25.5875 30.5645C27.0696 31.2704 30.0477 32.3338 35.3806 32.3338C40.7148 32.3338 43.6929 31.2699 45.1748 30.564C45.0508 31.6147 44.8054 32.6264 44.4561 33.5774ZM45.1521 28.5372C44.2703 29.028 41.5868 30.5219 35.3806 30.5219C29.1747 30.5219 26.491 29.028 25.6092 28.5372C25.5773 28.5195 25.5447 28.5045 25.5118 28.4911C26.1779 27.8929 26.9032 27.0355 27.5555 25.9286C28.3183 26.2561 30.5383 27.1772 35.3807 27.1772C40.2241 27.1772 42.4441 26.2555 43.2064 25.9285C43.8587 27.0352 44.5839 27.8927 45.25 28.4908C45.2169 28.5043 45.1841 28.5194 45.1521 28.5372ZM46.7186 27.3681C44.8757 25.9234 42.2326 21.8734 43.1447 15.442C46.2314 18.5659 50.1457 22.7293 50.7557 23.9587C51.1267 24.7066 52.0916 27.87 52.3773 30.4124C50.1126 29.4774 48.015 28.3844 46.7186 27.3681ZM61.2772 32.7664C59.599 32.7664 56.9224 32.0987 54.24 31.1318C54.0889 28.2402 52.8893 24.2085 52.3634 23.1483C52.1537 22.7254 51.6933 22.0953 51.0851 21.3519C54.4899 22.1506 57.9753 23.117 59.0601 23.422C61.2365 26.0363 62.3409 29.1146 62.3452 32.5924C62.2685 32.6394 61.9943 32.7664 61.2772 32.7664Z" fill="black"/>
<path d="M4.82323 51.7529L4.00188 54.4301H6.74553L5.92419 51.7529C5.87759 51.6472 5.82516 51.5709 5.76691 51.5239C5.72031 51.4769 5.66206 51.4535 5.59215 51.4535H5.15527C5.08536 51.4535 5.02129 51.4769 4.96304 51.5239C4.91643 51.5709 4.86983 51.6472 4.82323 51.7529ZM3.82713 60.1017C3.82713 60.3248 3.7747 60.4892 3.66985 60.5949C3.57665 60.6888 3.41937 60.7358 3.19801 60.7358H0.629117C0.407761 60.7358 0.244657 60.6888 0.139804 60.5949C0.0466013 60.4892 0 60.3248 0 60.1017V55.4517C0 55.0995 0.0524264 54.6943 0.157279 54.2364C0.273783 53.7784 0.448537 53.2442 0.681544 52.6336L2.20191 48.6353C2.27181 48.4357 2.37667 48.2889 2.51647 48.1949C2.66792 48.101 2.86015 48.054 3.09316 48.054H7.79406C8.01542 48.054 8.196 48.101 8.3358 48.1949C8.48726 48.2889 8.59794 48.4357 8.66784 48.6353L10.1882 52.6336C10.4212 53.2442 10.5901 53.7784 10.695 54.2364C10.8115 54.6943 10.8697 55.0995 10.8697 55.4517V60.1017C10.8697 60.3248 10.8173 60.4892 10.7125 60.5949C10.6193 60.6888 10.462 60.7358 10.2406 60.7358H7.60183C7.36883 60.7358 7.19407 60.6888 7.07757 60.5949C6.97272 60.4892 6.92029 60.3248 6.92029 60.1017V57.6358H3.82713V60.1017Z" fill="#FFEBD2"/>
<path d="M20.3013 60.7358H15.7577C15.5363 60.7358 15.3499 60.6947 15.1985 60.6125C15.0587 60.5303 14.948 60.3777 14.8664 60.1545L13.1538 55.8392C13.049 55.5809 12.9616 55.3578 12.8917 55.1699C12.8218 54.9703 12.7636 54.7824 12.717 54.6063C12.6704 54.4301 12.6354 54.2481 12.6121 54.0603C12.6005 53.8606 12.5946 53.6199 12.5946 53.3381V48.6881C12.5946 48.465 12.6412 48.3065 12.7344 48.2126C12.8393 48.1069 13.0024 48.054 13.2237 48.054H16.0023C16.2237 48.054 16.3926 48.1069 16.5091 48.2126C16.6256 48.3065 16.6839 48.465 16.6839 48.6881V53.5495C16.6839 53.6669 16.6955 53.7843 16.7188 53.9017C16.7421 54.0192 16.7771 54.1425 16.8237 54.2716L17.645 56.7375C17.68 56.8549 17.7208 56.9371 17.7674 56.9841C17.814 57.0193 17.8839 57.0369 17.9771 57.0369H18.1693C18.2625 57.0369 18.3324 57.0193 18.379 56.9841C18.4256 56.9371 18.4664 56.8549 18.5013 56.7375L19.3227 54.254C19.3693 54.1248 19.4042 54.0015 19.4275 53.8841C19.4508 53.7667 19.4625 53.6493 19.4625 53.5319V48.6881C19.4625 48.465 19.5091 48.3065 19.6023 48.2126C19.7072 48.1069 19.8703 48.054 20.0916 48.054H22.8353C23.0566 48.054 23.2139 48.1069 23.3071 48.2126C23.412 48.3065 23.4644 48.465 23.4644 48.6881V53.3381C23.4644 53.6199 23.4527 53.8606 23.4294 54.0603C23.4178 54.2481 23.3887 54.4301 23.3421 54.6063C23.2955 54.7824 23.2372 54.9703 23.1673 55.1699C23.0974 55.3578 23.01 55.5809 22.9052 55.8392L21.1926 60.1545C21.111 60.3777 20.9945 60.5303 20.8431 60.6125C20.7033 60.6947 20.5227 60.7358 20.3013 60.7358Z" fill="#FFEBD2"/>
<path d="M25.9017 57.4068H30.288C30.5676 57.4068 30.7482 57.354 30.8297 57.2483C30.9113 57.1426 30.9521 57.0193 30.9521 56.8784V56.4029C30.9521 56.262 30.9113 56.1445 30.8297 56.0506C30.7482 55.9449 30.5676 55.8921 30.288 55.8921H27.3172C27.0958 55.8921 26.9327 55.8451 26.8279 55.7512C26.7347 55.6455 26.6881 55.4811 26.6881 55.258V53.3733C26.6881 53.1502 26.7347 52.9917 26.8279 52.8978C26.9327 52.7921 27.0958 52.7392 27.3172 52.7392H29.1521C29.4317 52.7392 29.6123 52.6864 29.6938 52.5807C29.7754 52.475 29.8162 52.3517 29.8162 52.2108V51.9466C29.8162 51.8057 29.7754 51.6824 29.6938 51.5767C29.6123 51.4711 29.4317 51.4182 29.1521 51.4182H25.9017C25.6803 51.4182 25.5172 51.3713 25.4123 51.2773C25.3191 51.1716 25.2725 51.0072 25.2725 50.7841V48.6881C25.2725 48.465 25.3191 48.3065 25.4123 48.2126C25.5172 48.1069 25.6803 48.054 25.9017 48.054H30.7773C31.7443 48.054 32.4608 48.283 32.9268 48.741C33.4045 49.1872 33.6433 49.7978 33.6433 50.5728V51.5944C33.6433 52.0406 33.5676 52.4281 33.4161 52.7569C33.2647 53.0856 32.9967 53.3322 32.6122 53.4966C33.4394 53.5906 34.0103 53.8489 34.3248 54.2716C34.6511 54.6826 34.8142 55.2756 34.8142 56.0506V57.8119C34.8142 58.7161 34.5287 59.4324 33.9579 59.9608C33.387 60.4775 32.5423 60.7358 31.4239 60.7358H25.9017C25.6803 60.7358 25.5172 60.6888 25.4123 60.5949C25.3191 60.4892 25.2725 60.3248 25.2725 60.1017V58.0409C25.2725 57.8178 25.3191 57.6593 25.4123 57.5654C25.5172 57.4597 25.6803 57.4068 25.9017 57.4068Z" fill="#FFEBD2"/>
<path d="M46.4479 57.4068C46.4479 57.947 46.3722 58.4402 46.2207 58.8864C46.0693 59.3208 45.8013 59.6966 45.4169 60.0136C45.044 60.3189 44.5256 60.5597 43.8615 60.7358C43.1975 60.9119 42.3528 61 41.3276 61C40.314 61 39.4752 60.9119 38.8111 60.7358C38.1587 60.5597 37.6403 60.3189 37.2558 60.0136C36.883 59.6966 36.6209 59.3208 36.4694 58.8864C36.3296 58.4402 36.2597 57.947 36.2597 57.4068V54.5534C36.2597 54.3303 36.3063 54.1718 36.3995 54.0779C36.5044 53.9722 36.6675 53.9193 36.8888 53.9193H39.4228C39.6441 53.9193 39.8014 53.9722 39.8946 54.0779C39.9995 54.1718 40.0519 54.3303 40.0519 54.5534V56.7023C40.0519 56.9371 40.1218 57.1368 40.2616 57.3012C40.413 57.4538 40.7567 57.5301 41.2926 57.5301C41.7936 57.5301 42.1082 57.4538 42.2363 57.3012C42.3761 57.1368 42.446 56.9371 42.446 56.7023V48.6881C42.446 48.465 42.4926 48.3065 42.5858 48.2126C42.6907 48.1069 42.8538 48.054 43.0751 48.054H45.8188C46.0401 48.054 46.1974 48.1069 46.2906 48.2126C46.3955 48.3065 46.4479 48.465 46.4479 48.6881V57.4068Z" fill="#FFEBD2"/>
<path d="M53.3416 51.7529L52.5202 54.4301H55.2639L54.4425 51.7529C54.3959 51.6472 54.3435 51.5709 54.2852 51.5239C54.2386 51.4769 54.1804 51.4535 54.1105 51.4535H53.6736C53.6037 51.4535 53.5396 51.4769 53.4814 51.5239C53.4348 51.5709 53.3882 51.6472 53.3416 51.7529ZM52.3455 60.1017C52.3455 60.3248 52.293 60.4892 52.1882 60.5949C52.095 60.6888 51.9377 60.7358 51.7164 60.7358H49.1475C48.9261 60.7358 48.763 60.6888 48.6581 60.5949C48.5649 60.4892 48.5183 60.3248 48.5183 60.1017V55.4517C48.5183 55.0995 48.5708 54.6943 48.6756 54.2364C48.7921 53.7784 48.9669 53.2442 49.1999 52.6336L50.7203 48.6353C50.7902 48.4357 50.895 48.2889 51.0348 48.1949C51.1863 48.101 51.3785 48.054 51.6115 48.054H56.3124C56.5338 48.054 56.7143 48.101 56.8541 48.1949C57.0056 48.2889 57.1163 48.4357 57.1862 48.6353L58.7065 52.6336C58.9395 53.2442 59.1085 53.7784 59.2133 54.2364C59.3298 54.6943 59.3881 55.0995 59.3881 55.4517V60.1017C59.3881 60.3248 59.3357 60.4892 59.2308 60.5949C59.1376 60.6888 58.9803 60.7358 58.759 60.7358H56.1202C55.8872 60.7358 55.7124 60.6888 55.5959 60.5949C55.4911 60.4892 55.4386 60.3248 55.4386 60.1017V57.6358H52.3455V60.1017Z" fill="#FFEBD2"/>
<path d="M67.3826 60.7358H61.8603C61.639 60.7358 61.4759 60.6888 61.371 60.5949C61.2778 60.4892 61.2312 60.3248 61.2312 60.1017V58.0409C61.2312 57.8178 61.2778 57.6593 61.371 57.5654C61.4759 57.4597 61.639 57.4068 61.8603 57.4068H66.5612C66.7127 57.4068 66.8234 57.3599 66.8933 57.2659C66.9748 57.1602 67.0156 57.0369 67.0156 56.896C67.0156 56.6964 66.9748 56.5496 66.8933 56.4557C66.8234 56.3618 66.7127 56.3089 66.5612 56.2972L63.9399 55.9273C63.1244 55.8099 62.4661 55.5398 61.9652 55.1171C61.4759 54.6943 61.2312 53.9898 61.2312 53.0034V51.154C61.2312 50.1559 61.5516 49.3927 62.1924 48.8643C62.8331 48.3241 63.7186 48.054 64.8486 48.054H69.7418C69.9631 48.054 70.1204 48.1069 70.2136 48.2126C70.3185 48.3065 70.3709 48.465 70.3709 48.6881V50.7841C70.3709 51.0072 70.3185 51.1716 70.2136 51.2773C70.1204 51.3713 69.9631 51.4182 69.7418 51.4182H65.67C65.5185 51.4182 65.402 51.4711 65.3205 51.5767C65.2389 51.6707 65.1981 51.794 65.1981 51.9466C65.1981 52.0993 65.2389 52.2284 65.3205 52.3341C65.402 52.4398 65.5185 52.4985 65.67 52.5103L68.2738 52.8625C69.0893 52.98 69.7476 53.25 70.2486 53.6728C70.7495 54.0955 71 54.8 71 55.7864V57.6358C71 58.6339 70.6738 59.403 70.0214 59.9432C69.3806 60.4716 68.501 60.7358 67.3826 60.7358Z" fill="#FFEBD2"/>
</svg>
