<svg width="55" height="55" viewBox="0 0 55 55" fill="none" xmlns="http://www.w3.org/2000/svg">
<path d="M45.7489 4.00729H35.6173V1.07422C35.6173 0.481024 35.1363 0 34.5431 0H20.4568C19.8636 0 19.3826 0.481024 19.3826 1.07422V4.00729H9.25104C8.65784 4.00729 8.17682 4.48831 8.17682 5.08151V53.9258C8.17682 54.519 8.65784 55 9.25104 55H45.7489C46.3421 55 46.8231 54.519 46.8231 53.9258V5.08151C46.8231 4.4882 46.3421 4.00729 45.7489 4.00729ZM21.5311 2.14844H33.4689V8.33922H21.5311V2.14844ZM44.6747 52.8516H10.3253V6.15573H19.3826V9.41355C19.3826 10.0067 19.8636 10.4878 20.4568 10.4878H34.5431C35.1363 10.4878 35.6173 10.0067 35.6173 9.41355V6.15573H44.6747V52.8516Z" fill="white"/>
<path d="M14.8828 16.0111H31.453C32.0462 16.0111 32.5272 15.5301 32.5272 14.9369C32.5272 14.3437 32.0462 13.8627 31.453 13.8627H14.8828C14.2896 13.8627 13.8085 14.3437 13.8085 14.9369C13.8085 15.5301 14.2896 16.0111 14.8828 16.0111Z" fill="white"/>
<path d="M40.4421 19.386H14.8828C14.2896 19.386 13.8085 19.867 13.8085 20.4602C13.8085 21.0534 14.2896 21.5344 14.8828 21.5344H40.4421C41.0353 21.5344 41.5164 21.0534 41.5164 20.4602C41.5164 19.867 41.0353 19.386 40.4421 19.386Z" fill="white"/>
<path d="M40.4421 24.9095H14.8828C14.2896 24.9095 13.8085 25.3906 13.8085 25.9838C13.8085 26.577 14.2896 27.058 14.8828 27.058H40.4421C41.0353 27.058 41.5164 26.577 41.5164 25.9838C41.5164 25.3906 41.0353 24.9095 40.4421 24.9095Z" fill="white"/>
<path d="M40.4421 30.108H14.8828C14.2896 30.108 13.8085 30.5891 13.8085 31.1823C13.8085 31.7754 14.2896 32.2565 14.8828 32.2565H40.4421C41.0353 32.2565 41.5164 31.7754 41.5164 31.1823C41.5164 30.5891 41.0353 30.108 40.4421 30.108Z" fill="white"/>
<path d="M36.8682 16.0111H40.4421C41.0353 16.0111 41.5164 15.5301 41.5164 14.9369C41.5164 14.3437 41.0353 13.8627 40.4421 13.8627H36.8682C36.275 13.8627 35.7939 14.3437 35.7939 14.9369C35.7939 15.5301 36.275 16.0111 36.8682 16.0111Z" fill="white"/>
<path d="M29.5841 42.2699C29.5841 41.9832 29.4693 41.7082 29.2654 41.5064L25.169 37.4519C24.7633 37.0502 24.1139 37.0361 23.6913 37.4201C22.2726 38.7084 21.4589 40.5401 21.4589 42.4456C21.4589 44.268 22.1753 45.9805 23.476 47.268C23.6853 47.4751 23.9585 47.5787 24.2317 47.5787C24.5048 47.5787 24.778 47.4752 24.9873 47.268L29.2656 43.0334C29.4694 42.8316 29.5841 42.5567 29.5841 42.2699ZM24.3173 44.9083C23.8549 44.1764 23.6075 43.3297 23.6075 42.4456C23.6075 41.4852 23.9111 40.5514 24.4607 39.7735L26.983 42.2699L24.3173 44.9083Z" fill="white"/>
<path d="M38.6329 37.6235V37.6234L38.6327 37.6233C37.335 36.3387 35.6105 35.6313 33.7766 35.6313C32.054 35.6313 30.4057 36.2666 29.1355 37.4201C28.9172 37.6183 28.7901 37.8975 28.7836 38.1923C28.7773 38.4871 28.8924 38.7715 29.102 38.9788L32.427 42.2699L28.9202 45.741C28.7163 45.9427 28.6017 46.2177 28.6017 46.5045C28.6017 46.7912 28.7163 47.0661 28.9202 47.268C30.218 48.5525 31.9427 49.2599 33.7767 49.2599C37.5667 49.2599 40.6501 46.203 40.6501 42.4456C40.6499 40.6234 39.9336 38.911 38.6329 37.6235ZM31.5177 38.3471C32.2048 37.9771 32.9788 37.7799 33.7765 37.7799C34.6681 37.7799 35.522 38.0221 36.2611 38.475L33.954 40.7585L31.5177 38.3471ZM33.7765 47.1115C32.8847 47.1115 32.0308 46.8693 31.2919 46.4164L35.5448 42.2068L37.7916 39.983C38.254 40.715 38.5015 41.5616 38.5015 42.4456C38.5015 45.0184 36.3819 47.1115 33.7765 47.1115Z" fill="white"/>
<path d="M28.0371 3.86719H24.3848C23.7916 3.86719 23.3105 4.34821 23.3105 4.94141C23.3105 5.5346 23.7916 6.01562 24.3848 6.01562H28.0371C28.6303 6.01562 29.1113 5.5346 29.1113 4.94141C29.1113 4.34821 28.6303 3.86719 28.0371 3.86719Z" fill="white"/>
</svg>
