<svg width="48" height="48" viewBox="0 0 48 48" fill="none" xmlns="http://www.w3.org/2000/svg">
<g clip-path="url(#clip0_104_71)">
<path d="M36.8 24.8H35.2V27.2H36.8V24.8Z" fill="#FBFBFB"/>
<path d="M1.6 11.2H10.4C10.88 11.2 11.2 10.88 11.2 10.4V1.6H35.2V4H36.8V0.8C36.8 0.32 36.48 0 36 0H10.4C10.32 0 10.24 0 10.16 0.08H10.08C10 0.16 9.92 0.16 9.84 0.24L0.24 9.84C0.16 9.92 0.16 10 0.08 10.08V10.16C0.08 10.24 0 10.32 0 10.4V47.2C0 47.68 0.32 48 0.8 48H29.6V46.4H1.6V11.2ZM9.6 9.6H2.72L6.16 6.16L9.6 2.72V9.6Z" fill="#FBFBFB"/>
<path d="M39.2 23.2C44.08 23.2 48 19.28 48 14.4C48 9.51998 44.08 5.59998 39.2 5.59998C34.32 5.59998 30.4 9.51998 30.4 14.4C30.4 19.28 34.32 23.2 39.2 23.2ZM39.2 7.19998C43.2 7.19998 46.4 10.4 46.4 14.4C46.4 18.4 43.2 21.6 39.2 21.6C35.2 21.6 32 18.4 32 14.4C32 10.4 35.2 7.19998 39.2 7.19998Z" fill="#FBFBFB"/>
<path d="M37.6 18.4H38.4V20H40V18.4H40.8C41.76 18.4 42.4 17.76 42.4 16.8V15.2C42.4 14.24 41.76 13.6 40.8 13.6H37.6V12H40.8V12.8H42.4V12C42.4 11.04 41.76 10.4 40.8 10.4H40V8.80005H38.4V10.4H37.6C36.64 10.4 36 11.04 36 12V13.6C36 14.56 36.64 15.2 37.6 15.2H40.8V16.8H37.6V16H36V16.8C36 17.76 36.64 18.4 37.6 18.4Z" fill="#FBFBFB"/>
<path d="M47.2 28.8H32.8C32.32 28.8 32 29.12 32 29.6V47.2C32 47.68 32.32 48 32.8 48H47.2C47.68 48 48 47.68 48 47.2V29.6C48 29.12 47.68 28.8 47.2 28.8ZM46.4 30.4V33.6H33.6V30.4H46.4ZM33.6 46.4V35.2H46.4V46.4H33.6Z" fill="#FBFBFB"/>
<path d="M37.6 36.8H36V38.4H37.6V36.8Z" fill="#FBFBFB"/>
<path d="M40.8 36.8H39.2V38.4H40.8V36.8Z" fill="#FBFBFB"/>
<path d="M44 36.8H42.4V38.4H44V36.8Z" fill="#FBFBFB"/>
<path d="M37.6 40H36V41.6H37.6V40Z" fill="#FBFBFB"/>
<path d="M40.8 40H39.2V41.6H40.8V40Z" fill="#FBFBFB"/>
<path d="M44 40H42.4V41.6H44V40Z" fill="#FBFBFB"/>
<path d="M37.6 43.2H36V44.8H37.6V43.2Z" fill="#FBFBFB"/>
<path d="M40.8 43.2H39.2V44.8H40.8V43.2Z" fill="#FBFBFB"/>
<path d="M44 43.2H42.4V44.8H44V43.2Z" fill="#FBFBFB"/>
<path d="M36 31.2H34.4V32.8H36V31.2Z" fill="#FBFBFB"/>
<path d="M38.4 31.2H36.8V32.8H38.4V31.2Z" fill="#FBFBFB"/>
<path d="M40.8 31.2H39.2V32.8H40.8V31.2Z" fill="#FBFBFB"/>
<path d="M43.2 31.2H41.6V32.8H43.2V31.2Z" fill="#FBFBFB"/>
<path d="M45.6 31.2H44V32.8H45.6V31.2Z" fill="#FBFBFB"/>
<path d="M20 4H15.2V5.6H20V4Z" fill="#FBFBFB"/>
<path d="M27.2 8H15.2V9.6H27.2V8Z" fill="#FBFBFB"/>
<path d="M7.43998 14.64L5.03998 17.04L6.15998 18.16L7.19998 17.12V28H8.79998V17.12L9.83998 18.16L10.96 17.04L8.55998 14.64C8.23998 14.32 7.75998 14.32 7.43998 14.64Z" fill="#FBFBFB"/>
<path d="M14.16 21.36L15.2 20.32V28H16.8V20.32L17.84 21.36L18.96 20.24L16.56 17.84C16.24 17.52 15.76 17.52 15.44 17.84L13.04 20.24L14.16 21.36Z" fill="#FBFBFB"/>
<path d="M24.8 15.52L25.84 16.5601L26.96 15.44L24.56 13.04C24.24 12.72 23.76 12.72 23.44 13.04L21.04 15.44L22.16 16.5601L23.2 15.52V28H24.8V15.52Z" fill="#FBFBFB"/>
<path d="M19.2 32H7.20001V33.6H19.2V32Z" fill="#FBFBFB"/>
<path d="M28 36H7.20001V37.6H28V36Z" fill="#FBFBFB"/>
<path d="M28 40H7.20001V41.6H28V40Z" fill="#FBFBFB"/>
<path d="M24 32H20.8V33.6H24V32Z" fill="#FBFBFB"/>
</g>
<defs>
<clipPath id="clip0_104_71">
<rect width="48" height="48" fill="white"/>
</clipPath>
</defs>
</svg>
