<svg width="20" height="20" viewBox="0 0 20 20" fill="none" xmlns="http://www.w3.org/2000/svg">
<path d="M1.46278 2.74634H0V17.2536H1.46278V2.74634Z" fill="#6F6F6F"/>
<path d="M3.92477 2.74634H2.83429V14.2058H3.92477V2.74634Z" fill="#6F6F6F"/>
<path d="M6.5729 2.74634H5.48242V14.2058H6.5729V2.74634Z" fill="#6F6F6F"/>
<path d="M9.22104 2.74634H8.1308V14.2058H9.22104V2.74634Z" fill="#6F6F6F"/>
<path d="M11.8692 2.74634H10.7787V14.2058H11.8692V2.74634Z" fill="#6F6F6F"/>
<path d="M14.5173 2.74634H13.4268V14.2058H14.5173V2.74634Z" fill="#6F6F6F"/>
<path d="M17.1655 2.74634H16.0752V14.2058H17.1655V2.74634Z" fill="#6F6F6F"/>
<path d="M20 2.74634H18.537V17.2536H20V2.74634Z" fill="#6F6F6F"/>
<path d="M2.57129 15.4692V15.7036L2.9311 15.613V17.1323H3.28971V15.2568H2.93398L2.57129 15.4692Z" fill="#6F6F6F"/>
<path d="M6.13503 15.8118C6.13503 15.4966 5.9669 15.2314 5.5797 15.2314C5.24872 15.2314 5.03422 15.2564 4.80099 15.2965V15.5646H5.46585C5.68587 15.5646 5.77498 15.6436 5.77498 15.8137C5.77498 16.1106 5.05968 16.656 4.81997 16.8174V17.1326H6.13479V16.8021H5.42742C5.5982 16.6664 6.13503 16.2321 6.13503 15.8118Z" fill="#6F6F6F"/>
<path d="M8.39669 15.2519C8.09693 15.2468 7.79333 15.2444 7.56802 15.3237V15.5824H8.2521C8.3854 15.5824 8.50454 15.6124 8.50454 15.7591V15.8514C8.50454 15.9866 8.42888 16.0267 8.2521 16.0347L7.74216 16.0601V16.3495L8.2521 16.3676C8.40462 16.374 8.49926 16.4067 8.49926 16.5616V16.6423C8.49926 16.8054 8.4075 16.8174 8.23648 16.8174H7.5858L7.58316 17.0788C7.80846 17.158 8.0866 17.1504 8.37844 17.1504C8.69117 17.1504 8.86003 16.988 8.86003 16.6918V16.583C8.86003 16.3885 8.80166 16.2583 8.66547 16.1999C8.79758 16.1507 8.86003 16.0246 8.86003 15.8375V15.7029C8.86027 15.4291 8.67844 15.2569 8.39669 15.2519Z" fill="#6F6F6F"/>
<path d="M11.6448 15.7591H11.3669L11.2862 15.9553V16.3829H10.8222L11.3823 15.2568H10.9879L10.3204 16.5584L10.4076 16.7237H11.2862V17.127H11.6448V16.7237L11.8334 16.6608V16.3829H11.6448V15.7591Z" fill="#6F6F6F"/>
<path d="M14.1395 15.9474C14.0855 15.946 13.9584 15.9363 13.8597 15.9474C13.8044 15.9532 13.7353 15.9681 13.6827 16.0101L13.7021 15.5873H14.4964V15.2568H13.3577L13.3015 16.4134H13.6394C13.6394 16.3077 13.706 16.2635 13.796 16.2635H14.0355C14.1916 16.2635 14.207 16.362 14.207 16.4468V16.6173C14.207 16.6961 14.1868 16.7991 14.0201 16.7991H13.2976V17.0811C13.6409 17.14 13.773 17.1426 14.0905 17.1426C14.3002 17.1426 14.5659 17.0297 14.5659 16.6788V16.4148C14.5656 16.1537 14.439 15.9616 14.1395 15.9474Z" fill="#6F6F6F"/>
<path d="M16.9594 15.9934C16.7557 15.9934 16.5909 16.0088 16.4408 16.0475C16.4432 15.8476 16.4639 15.5721 16.6969 15.5721H17.3387V15.3C17.098 15.2567 16.78 15.226 16.5227 15.2486C16.3017 15.2683 16.0822 15.4696 16.0822 16.1483C16.0822 16.9552 16.2818 17.1336 16.5792 17.1346H16.9452C17.2171 17.1346 17.4001 17.0229 17.4001 16.7104V16.4315C17.4001 16.188 17.3221 15.9934 16.9594 15.9934ZM17.0427 16.646C17.0427 16.7801 16.986 16.8041 16.8806 16.8041H16.6851C16.4667 16.8041 16.4408 16.5675 16.4408 16.3095H16.8876C16.9928 16.3095 17.0427 16.3427 17.0427 16.4736V16.646Z" fill="#6F6F6F"/>
</svg>
