<svg width="48" height="48" viewBox="0 0 48 48" fill="none" xmlns="http://www.w3.org/2000/svg">
<path d="M45.2 39.2V0.8C45.2 0.32 44.88 0 44.4 0H8.39998C7.91998 0 7.59998 0.32 7.59998 0.8V12H9.19998V1.6H43.6V38.4H36.4C35.92 38.4 35.6 38.72 35.6 39.2V46.4H9.19998V34.4H7.59998V47.2C7.59998 47.68 7.91998 48 8.39998 48H36.4C36.64 48 36.8 47.92 36.96 47.76L44.96 39.76C45.04 39.68 45.04 39.6 45.12 39.52V39.44C45.2 39.36 45.2 39.28 45.2 39.2ZM37.2 40H42.48L39.84 42.64L37.2 45.28V40Z" fill="white"/>
<path d="M13.2 30.4H18H21.2V28.8H18.8V13.6C18.8 13.12 18.48 12.8 18 12.8H13.2C12.72 12.8 12.4 13.12 12.4 13.6V18.4H8.39999C7.91999 18.4 7.59999 18.72 7.59999 19.2V22.4H3.59999C3.11999 22.4 2.79999 22.72 2.79999 23.2V29.6C2.79999 30.08 3.11999 30.4 3.59999 30.4H8.39999H13.2ZM14 14.4H17.2V28.8H14V19.2V14.4ZM9.19999 20H12.4V28.8H9.19999V23.2V20ZM4.39999 24H7.59999V28.8H4.39999V24Z" fill="white"/>
<path d="M40.4 19.2V5.60005C40.4 5.12005 40.08 4.80005 39.6 4.80005H22.8C22.32 4.80005 22 5.12005 22 5.60005V19.2C22 19.68 22.32 20 22.8 20H39.6C40.08 20 40.4 19.68 40.4 19.2ZM38.8 9.60005H29.2V6.40005H38.8V9.60005ZM27.6 6.40005V9.60005H23.6C23.6 8.32005 23.6 6.40005 23.6 6.40005H27.6ZM23.6 11.2H27.6V18.4H23.6C23.6 18.4 23.6 14.64 23.6 11.2ZM29.2 18.4V11.2H38.8V18.4H29.2Z" fill="white"/>
<path d="M39.6 22.4H22.8V24H39.6V22.4Z" fill="white"/>
<path d="M39.6 26.4H22.8V28H39.6V26.4Z" fill="white"/>
<path d="M39.6 30.4H22.8V32H39.6V30.4Z" fill="white"/>
<path d="M16.4 4.80005H11.6V6.40005H16.4V4.80005Z" fill="white"/>
<path d="M18.8 8.80005H11.6V10.4H18.8V8.80005Z" fill="white"/>
<path d="M17.2 34.4H11.6V36H17.2V34.4Z" fill="white"/>
<path d="M25.2 34.4H19.6V36H25.2V34.4Z" fill="white"/>
<path d="M33.2 34.4H27.6V36H33.2V34.4Z" fill="white"/>
<path d="M17.2 38.4H11.6V40H17.2V38.4Z" fill="white"/>
<path d="M25.2 38.4H19.6V40H25.2V38.4Z" fill="white"/>
<path d="M33.2 38.4H27.6V40H33.2V38.4Z" fill="white"/>
<path d="M17.2 42.4H11.6V44H17.2V42.4Z" fill="white"/>
<path d="M25.2 42.4H19.6V44H25.2V42.4Z" fill="white"/>
<path d="M33.2 42.4H27.6V44H33.2V42.4Z" fill="white"/>
</svg>
