<svg width="52" height="52" viewBox="0 0 52 52" fill="none" xmlns="http://www.w3.org/2000/svg">
<path d="M51.1333 31.2H50.2667V0.866667C50.2667 0.346667 49.92 0 49.4 0H2.6C2.08 0 1.73333 0.346667 1.73333 0.866667V31.2H0.866667C0.346667 31.2 0 31.5467 0 32.0667V43.3333C0 43.8533 0.346667 44.2 0.866667 44.2H9.53333V42.4667H1.73333V32.9333H2.6H49.4H50.2667V42.4667H28.6V44.2H51.1333C51.6533 44.2 52 43.8533 52 43.3333V32.0667C52 31.5467 51.6533 31.2 51.1333 31.2ZM3.46667 31.2V1.73333H48.5333V31.2H3.46667Z" fill="white"/>
<path d="M29.4667 5.19995H6.06668C5.54668 5.19995 5.20001 5.54662 5.20001 6.06662V26.8666C5.20001 27.3866 5.54668 27.7333 6.06668 27.7333H29.4667C29.9867 27.7333 30.3333 27.3866 30.3333 26.8666V6.06662C30.3333 5.54662 29.9867 5.19995 29.4667 5.19995ZM28.6 20.8H22.5333V6.93328H28.6V20.8ZM20.8 6.93328V20.8H6.93335V6.93328H20.8ZM6.93335 26V22.5333H28.6V26H6.93335Z" fill="white"/>
<path d="M30.3333 38.1334V36.4H26H12.1333H7.79999V38.1334H11.2667V51.1334C11.2667 51.6534 11.6133 52 12.1333 52H26C26.52 52 26.8667 51.6534 26.8667 51.1334V38.1334H30.3333ZM21.6667 38.1334C21.6667 39.0867 20.8867 39.8667 19.9333 39.8667H18.2C17.2467 39.8667 16.4667 39.0867 16.4667 38.1334H21.6667ZM25.1333 50.2667H13V38.1334H14.7333C14.7333 40.04 16.2933 41.6 18.2 41.6H19.9333C21.84 41.6 23.4 40.04 23.4 38.1334H25.1333V50.2667Z" fill="white"/>
<path d="M45.9333 5.19995H33.8C33.28 5.19995 32.9333 5.54662 32.9333 6.06662V11.2666C32.9333 11.7866 33.28 12.1333 33.8 12.1333H45.9333C46.4534 12.1333 46.8 11.7866 46.8 11.2666V6.06662C46.8 5.54662 46.4534 5.19995 45.9333 5.19995ZM45.0667 10.4H34.6667V6.93328H45.0667V10.4Z" fill="white"/>
<path d="M35.5333 14.7333H33.8V16.4666H35.5333V14.7333Z" fill="white"/>
<path d="M39 14.7333H37.2667V16.4666H39V14.7333Z" fill="white"/>
<path d="M42.4667 14.7333H40.7333V16.4666H42.4667V14.7333Z" fill="white"/>
<path d="M45.9333 14.7333H44.2V16.4666H45.9333V14.7333Z" fill="white"/>
<path d="M35.5333 18.2H33.8V19.9333H35.5333V18.2Z" fill="white"/>
<path d="M39 18.2H37.2667V19.9333H39V18.2Z" fill="white"/>
<path d="M42.4667 18.2H40.7333V19.9333H42.4667V18.2Z" fill="white"/>
<path d="M45.9333 18.2H44.2V19.9333H45.9333V18.2Z" fill="white"/>
<path d="M35.5333 21.6666H33.8V23.4H35.5333V21.6666Z" fill="white"/>
<path d="M39 21.6666H37.2667V23.4H39V21.6666Z" fill="white"/>
<path d="M42.4667 21.6666H40.7333V23.4H42.4667V21.6666Z" fill="white"/>
<path d="M45.9333 21.6666H44.2V23.4H45.9333V21.6666Z" fill="white"/>
<path d="M35.5333 25.1333H33.8V26.8666H35.5333V25.1333Z" fill="white"/>
<path d="M39 25.1333H37.2667V26.8666H39V25.1333Z" fill="white"/>
<path d="M42.4667 25.1333H40.7333V26.8666H42.4667V25.1333Z" fill="white"/>
<path d="M45.9333 25.1333H44.2V26.8666H45.9333V25.1333Z" fill="white"/>
<path d="M35.5333 36.4H32.0667V38.1334H35.5333V36.4Z" fill="white"/>
<path d="M40.7333 36.4H37.2667V38.1334H40.7333V36.4Z" fill="white"/>
<path d="M15.6 45.9333H13.8666V48.5333C13.8666 49.0533 14.2133 49.4 14.7333 49.4H17.3333V47.6667H15.6V45.9333Z" fill="white"/>
<path d="M22.5333 47.6667H20.8V49.4H23.4C23.92 49.4 24.2667 49.0533 24.2667 48.5333V45.9333H22.5333V47.6667Z" fill="white"/>
<path d="M26.8667 9.53333H24.2667V11.2667H26.8667V9.53333Z" fill="white"/>
<path d="M26.8667 13H24.2667V14.7333H26.8667V13Z" fill="white"/>
<path d="M26.8667 16.4667H24.2667V18.2H26.8667V16.4667Z" fill="white"/>
<path d="M12.1334 18.2H13V19.0666H14.7334V18.2H15.6C16.64 18.2 17.3334 17.5066 17.3334 16.4666V14.7333C17.3334 13.6933 16.64 13 15.6 13H12.1334V11.2666H15.6V12.1333H17.3334V11.2666C17.3334 10.2266 16.64 9.53329 15.6 9.53329H14.7334V8.66663H13V9.53329H12.1334C11.0934 9.53329 10.4 10.2266 10.4 11.2666V13C10.4 14.04 11.0934 14.7333 12.1334 14.7333H15.6V16.4666H12.1334V15.6H10.4V16.4666C10.4 17.5066 11.0934 18.2 12.1334 18.2Z" fill="white"/>
</svg>
